<svg width="26" height="22" viewBox="0 0 26 22" fill="none" xmlns="http://www.w3.org/2000/svg">
<path d="M16.1787 18.8519L16.1776 18.8528C15.5201 19.3722 14.937 19.8246 14.3763 20.1523C13.8153 20.4801 13.3713 20.625 13 20.625C12.629 20.625 12.185 20.48 11.6237 20.1519C11.0626 19.8241 10.4795 19.3719 9.82146 18.8533C9.45577 18.5649 9.0839 18.2782 8.71009 17.9899C7.14358 16.7819 5.54293 15.5476 4.21987 14.058C2.61535 12.2514 1.5 10.1485 1.5 7.42124C1.5 4.75596 3.00589 2.52408 5.05635 1.58682C7.04374 0.678393 9.72285 0.913051 12.2795 3.56966L13 4.31837L13.7205 3.56966C16.277 0.913168 18.956 0.679006 20.9435 1.58785C22.9941 2.52558 24.5 4.75787 24.5 7.42249C24.5 10.1491 23.3849 12.2521 21.7806 14.0584C20.4553 15.5506 18.8511 16.7866 17.2817 17.9959C16.9107 18.2817 16.5417 18.566 16.1787 18.8519Z" stroke="black" stroke-opacity="0.4" stroke-width="2"/>
</svg>
