<svg width="104" height="51" viewBox="0 0 104 51" fill="none" xmlns="http://www.w3.org/2000/svg">
<g clip-path="url(#clip0_923_2)">
<path d="M11.9331 37.0772C11.7468 36.4264 11.4505 35.7941 11.0382 35.1834C10.6259 34.5758 10.1128 34.0453 9.50499 33.595C8.89719 33.1385 8.13364 32.7776 7.22347 32.5001C6.31026 32.2286 5.30236 32.0898 4.20283 32.0898H0.0551758V46.836H4.6854C6.9944 46.836 8.82389 46.1575 10.1769 44.8065C11.5299 43.4556 12.2049 41.5649 12.2049 39.1283C12.2049 38.4127 12.1133 37.7311 11.9331 37.0772ZM8.83306 44.6184C7.84959 45.8398 6.4538 46.4536 4.64264 46.4536H1.77471V32.4877H4.66402C6.35301 32.4877 7.7152 33.1231 8.75364 34.3938C9.79209 35.6646 10.3113 37.3517 10.3113 39.4614C10.3113 41.6729 9.81652 43.3939 8.83306 44.6215V44.6184Z" fill="#BA7270"/>
<path d="M14.4131 36.3648C14.2085 36.4419 14.0375 36.5684 13.9061 36.7565C13.7717 36.9416 13.7076 37.1513 13.7076 37.3919V46.722H15.4485V36.0317L14.4131 36.3679V36.3648ZM15.2836 32.2441C15.1003 32.0529 14.8591 31.9573 14.5689 31.9573C14.3032 31.9573 14.0741 32.0529 13.8848 32.2441C13.6954 32.4353 13.6007 32.6821 13.6007 32.9782C13.6007 33.2465 13.6954 33.4779 13.8848 33.6691C14.0741 33.8603 14.3093 33.959 14.5811 33.959C14.8529 33.959 15.082 33.8603 15.2775 33.6691C15.4668 33.4779 15.5615 33.2465 15.5615 32.9782C15.5615 32.6821 15.4699 32.4353 15.2836 32.2441Z" fill="#BA7270"/>
<path d="M25.0877 36.0317L21.8441 44.2731L18.5333 36.0317H16.5725L20.8057 46.7251H21.2883L25.5214 36.0317H25.0816H25.0877Z" fill="#BA7270"/>
<path d="M27.1371 36.3648C26.9325 36.4419 26.7645 36.5684 26.6301 36.7565C26.4988 36.9416 26.4316 37.1513 26.4316 37.3919V46.722H28.1756V36.0317L27.1371 36.3679V36.3648ZM28.0106 32.2441C27.8243 32.0529 27.5861 31.9573 27.2898 31.9573C27.0241 31.9573 26.7981 32.0529 26.6088 32.2441C26.4163 32.4353 26.3217 32.6821 26.3217 32.9782C26.3217 33.2465 26.4163 33.4779 26.6088 33.6691C26.7981 33.8603 27.0272 33.959 27.3021 33.959C27.5769 33.959 27.8091 33.8603 27.9984 33.6691C28.1878 33.4779 28.2825 33.2465 28.2825 32.9782C28.2825 32.6821 28.1908 32.4353 28.0106 32.2441Z" fill="#BA7270"/>
<path d="M37.042 46.7219H38.6944V44.8127L37.042 45.6301V46.7189V46.7219ZM37.5704 36.8212C36.8191 36.1797 35.8936 35.8558 34.7911 35.8558C33.9084 35.8558 32.9524 36.3432 31.9231 37.324V36.0316L30.8877 36.3678C30.6678 36.4449 30.4876 36.5714 30.3594 36.7595C30.225 36.9446 30.1608 37.1543 30.1608 37.3949V46.725H31.9231V37.9501C32.8638 37.0279 33.7221 36.5683 34.5009 36.5683C35.4141 36.5683 36.0616 36.8552 36.4556 37.4258C36.8496 37.9964 37.042 38.8631 37.042 40.0197V45.297L38.6944 44.4796V39.5725C38.6944 38.3881 38.3187 37.4689 37.5704 36.8212Z" fill="#BA7270"/>
<path d="M49.5247 43.8936C48.5992 45.2168 47.5241 45.8768 46.3024 45.8768C45.4534 45.8768 44.6684 45.6301 43.9537 45.1427C43.2421 44.6523 42.7015 43.9676 42.3319 43.0917L50.3188 39.5046L50.1661 39.1067C50.0592 38.823 49.879 38.496 49.6132 38.1166C49.3475 37.7373 49.0268 37.361 48.6511 36.9909C48.2785 36.6207 47.7776 36.3216 47.1515 36.0871C46.5254 35.8589 45.8474 35.7725 45.1113 35.8311C44.4791 35.8743 43.8713 36.0378 43.2818 36.3216C42.6954 36.6053 42.1639 36.9724 41.6844 37.435C41.2049 37.8946 40.8231 38.4652 40.5391 39.1468C40.2489 39.8284 40.1084 40.5656 40.1084 41.3521C40.1084 42.1386 40.2398 42.9004 40.5086 43.5882L38.6974 44.4796V44.8158L40.6216 43.8658C40.9025 44.5135 41.2691 45.0564 41.718 45.4882C42.2037 45.9539 42.7504 46.3179 43.3643 46.577C43.9721 46.836 44.586 46.9687 45.206 46.9687C45.826 46.9687 46.4582 46.8484 47.0324 46.614C47.6066 46.3734 48.0678 46.1143 48.4129 45.8367C48.758 45.553 49.0757 45.2229 49.375 44.8436C49.6682 44.4642 49.8545 44.2051 49.937 44.054C50.0164 43.9059 50.0805 43.7856 50.1233 43.6993L49.7965 43.4772C49.7385 43.5975 49.6499 43.7363 49.5308 43.8998L49.5247 43.8936ZM41.8677 40.5749C41.8677 39.372 42.1762 38.351 42.7962 37.5121C43.4131 36.6732 44.2103 36.2537 45.1999 36.2537C45.6397 36.2537 46.055 36.3493 46.446 36.5436C46.8339 36.7349 47.1485 36.9631 47.3959 37.2222C47.6371 37.4813 47.8632 37.7897 48.0678 38.1444C48.2724 38.4991 48.4251 38.8075 48.5198 39.0574C48.6145 39.3103 48.6939 39.557 48.7519 39.7914L42.2006 42.7555C41.9807 42.0862 41.8677 41.3583 41.8677 40.5718V40.5749Z" fill="#BA7270"/>
<path d="M69.1512 32.4816C68.8947 32.2225 68.5831 32.0898 68.2136 32.0898H67.7738L63.6261 44.2267L59.2616 32.935C59.1577 32.682 58.9928 32.4785 58.7638 32.3243C58.5347 32.17 58.2903 32.0898 58.0246 32.0898H56.1066V32.3582C56.3998 32.4445 56.6136 32.6419 56.748 32.938C56.8793 33.2341 56.9465 33.7245 56.9465 34.4062V46.836H57.3405V43.7178C57.3405 41.6544 57.3435 39.4768 57.3527 37.1882C57.3619 34.9058 57.3649 33.5456 57.3649 33.1169L62.722 46.836H63.1222L67.8379 32.8486V46.836H69.5391V33.4284C69.5391 33.0583 69.4078 32.7406 69.1512 32.4816Z" fill="#BA7270"/>
<path d="M75.9988 35.788C75.3391 35.788 74.7282 35.8959 74.1815 36.1118C73.6318 36.3277 73.2042 36.559 72.9018 36.815C72.6025 37.068 72.3337 37.3579 72.0985 37.6941C71.8603 38.0241 71.7137 38.2616 71.6557 38.3973C71.5976 38.5299 71.561 38.6317 71.5457 38.7088L73.1797 38.9525L73.2897 38.6595C73.366 38.4682 73.476 38.2369 73.6348 37.9593C73.7875 37.6848 73.9708 37.4042 74.1846 37.1235C74.3984 36.8397 74.6671 36.6053 74.9909 36.4079C75.3116 36.2167 75.6506 36.1211 76.0019 36.1211C76.7807 36.1211 77.4007 36.4079 77.868 36.9878C78.3292 37.5676 78.5613 38.3696 78.5613 39.3966L75.9347 40.1523C75.2322 40.3589 74.6213 40.5687 74.1052 40.7753C73.5921 40.982 73.1003 41.2411 72.63 41.5464C72.1596 41.8487 71.7992 42.2157 71.5457 42.6475C71.2953 43.0793 71.1731 43.5605 71.1731 44.0941C71.1731 44.9885 71.4571 45.6794 72.0313 46.1791C72.6055 46.6787 73.3111 46.9255 74.151 46.9255C75.5315 46.9255 77.0006 46.4135 78.5583 45.3895C78.5735 45.7596 78.711 46.0773 78.9767 46.3364C79.2424 46.5955 79.557 46.7281 79.9265 46.7281H80.1923V39.6681C80.1923 37.0803 78.7965 35.791 76.0019 35.791L75.9988 35.788ZM78.5583 44.9854L78.1398 45.2723C77.8619 45.4635 77.4801 45.6547 76.9945 45.8398C76.5089 46.0279 76.069 46.1205 75.675 46.1205C75.0123 46.1205 74.4289 45.9262 73.9311 45.5283C73.4302 45.1366 73.1797 44.6061 73.1797 43.9337C73.1797 42.2281 74.1296 41.1054 76.0263 40.5718L78.5613 39.8377V44.9854H78.5583Z" fill="#BA7270"/>
<path d="M85.7266 36.0317C84.9752 36.2538 84.3583 36.6856 83.8726 37.324V36.0317L82.8373 36.3679C82.6173 36.445 82.4433 36.5715 82.3089 36.7596C82.1775 36.9447 82.1104 37.1544 82.1104 37.395V46.7251H83.8726V37.9255C84.4927 37.2747 85.1096 36.9478 85.7266 36.9478C86.0076 36.9478 86.3038 37.0156 86.6215 37.1482C86.9391 37.2839 87.1559 37.3919 87.269 37.4721C87.3881 37.5554 87.4736 37.6232 87.5347 37.6849L88.1516 36.1273C87.2842 35.8436 86.4779 35.8127 85.7266 36.0348V36.0317Z" fill="#BA7270"/>
<path d="M92.8277 36.0317C92.0763 36.2538 91.4594 36.6856 90.9737 37.324V36.0317L89.9384 36.3679C89.7185 36.445 89.5444 36.5715 89.41 36.7596C89.2786 36.9447 89.2115 37.1544 89.2115 37.395V46.7251H90.9737V37.9255C91.5938 37.2747 92.2107 36.9478 92.8277 36.9478C93.1087 36.9478 93.4049 37.0156 93.7226 37.1482C94.0402 37.2839 94.2571 37.3919 94.3701 37.4721C94.4892 37.5554 94.5747 37.6232 94.6358 37.6849L95.2527 36.1273C94.3853 35.8436 93.579 35.8127 92.8277 36.0348V36.0317Z" fill="#BA7270"/>
<path d="M101.883 36.0317C101.963 36.0995 102.061 36.1982 102.164 36.3339C102.164 36.3339 102.336 36.4974 102.381 36.701C102.445 36.9971 102.378 37.4289 102.171 37.9902C102.021 38.3449 101.12 40.4484 99.4554 44.2946L95.9705 36.0286C95.6528 36.8274 95.3352 37.6263 95.0176 38.4251C96.169 41.1486 97.3143 43.8659 98.4627 46.5863L98.0229 47.5671C97.8763 47.8786 97.745 48.1408 97.635 48.3567C97.5251 48.5695 97.3571 48.8347 97.128 49.1555C96.899 49.4763 96.6333 49.7199 96.3217 49.8834C96.0132 50.0469 95.6864 50.1271 95.3321 50.1271C95.0512 50.1271 94.7854 50.0438 94.538 49.8711C94.2845 49.6984 94.1257 49.5626 94.0524 49.4609C93.9791 49.3591 93.918 49.2666 93.8753 49.1925L93.127 50.1271L93.3683 50.3492C93.5301 50.4818 93.7867 50.6237 94.1379 50.7717C94.4892 50.9198 94.8587 50.9938 95.2405 50.9938C95.5062 50.9938 95.7536 50.9506 95.9919 50.8704C96.224 50.7871 96.4225 50.7039 96.5844 50.6144C96.7463 50.5219 96.9204 50.3677 97.1036 50.1487C97.2899 49.9266 97.4243 49.757 97.5159 49.6459C97.6014 49.5349 97.7267 49.319 97.8794 48.9982C98.0321 48.6774 98.1329 48.4708 98.1756 48.3752C98.2184 48.2796 98.3222 48.0513 98.4841 47.6966C100.35 43.3015 101.728 40.0783 102.607 38.0303C102.846 37.4844 103.065 37.0711 103.279 36.7966C103.493 36.5221 103.734 36.3525 103.994 36.2938V36.0255H101.877L101.883 36.0317Z" fill="#BA7270"/>
<path d="M61.4949 0H42.2945C40.9702 0 39.8965 1.08419 39.8965 2.4216V19.9468C39.8965 21.2842 40.9702 22.3684 42.2945 22.3684H61.4949C62.8193 22.3684 63.8929 21.2842 63.8929 19.9468V2.4216C63.8929 1.08419 62.8193 0 61.4949 0Z" fill="#BA7270"/>
<path d="M57.3419 22.3684V8.45888C56.7735 8.49658 56.2508 8.62227 55.7488 8.82337C53.915 9.54399 52.6372 10.7967 52.1145 12.7532C52.0605 12.9585 52.0398 13.1722 51.9859 13.3775C51.9693 13.4362 51.8987 13.5283 51.8531 13.5283C51.4424 13.5409 51.0275 13.5367 50.6168 13.5367C50.0733 10.4867 48.1566 8.94487 45.2358 8.42117V19.465C47.2521 19.3645 50.1977 17.7389 50.596 14.4207H51.9195C51.7784 18.1369 47.9325 21.1786 43.8626 20.7261V7.16428C47.0654 7.06792 49.6003 8.21169 51.2806 11.0481C52.9567 8.22007 55.4874 7.07211 58.6944 7.16428V22.3684H57.346H57.3419Z" fill="white"/>
<path d="M45.5429 6.29704C46.4709 6.29704 47.2232 5.53736 47.2232 4.60024C47.2232 3.66312 46.4709 2.90344 45.5429 2.90344C44.6149 2.90344 43.8627 3.66312 43.8627 4.60024C43.8627 5.53736 44.6149 6.29704 45.5429 6.29704Z" fill="white"/>
<path d="M57.0101 6.29704C57.938 6.29704 58.6903 5.53736 58.6903 4.60024C58.6903 3.66312 57.938 2.90344 57.0101 2.90344C56.0821 2.90344 55.3298 3.66312 55.3298 4.60024C55.3298 5.53736 56.0821 6.29704 57.0101 6.29704Z" fill="white"/>
</g>
<defs>
<clipPath id="clip0_923_2">
<rect width="104" height="51" fill="white"/>
</clipPath>
</defs>
</svg>
