<svg width="18" height="19" viewBox="0 0 18 19" fill="none" xmlns="http://www.w3.org/2000/svg">
<path d="M9.75 14.75C9.75 15.275 9.8475 15.7775 10.0125 16.25H3.75C3.35218 16.25 2.97064 16.092 2.68934 15.8107C2.40804 15.5294 2.25 15.1478 2.25 14.75V4.25C2.25 3.425 2.925 2.75 3.75 2.75H14.25C14.6478 2.75 15.0294 2.90804 15.3107 3.18934C15.592 3.47064 15.75 3.85218 15.75 4.25V10.5125C15.2775 10.3475 14.775 10.25 14.25 10.25V4.25H3.75V14.75H9.75ZM10.47 9.7175L8.4075 12.3725L6.9375 10.6025L4.875 13.25H10.0125C10.3125 12.41 10.8525 11.6825 11.55 11.1575L10.47 9.7175ZM15 14V11.75H13.5V14H11.25V15.5H13.5V17.75H15V15.5H17.25V14H15Z" fill="#BA7270"/>
</svg>
