<svg width="26" height="18" viewBox="0 0 26 18" fill="none" xmlns="http://www.w3.org/2000/svg">
<path d="M1.85714 0H11.1429C11.6354 0 12.1078 0.189642 12.4561 0.527208C12.8043 0.864773 13 1.32261 13 1.8C13 2.27739 12.8043 2.73523 12.4561 3.07279C12.1078 3.41036 11.6354 3.6 11.1429 3.6H1.85714C1.3646 3.6 0.892226 3.41036 0.543945 3.07279C0.195663 2.73523 0 2.27739 0 1.8C0 1.32261 0.195663 0.864773 0.543945 0.527208C0.892226 0.189642 1.3646 0 1.85714 0ZM14.8571 14.4H24.1429C24.6354 14.4 25.1078 14.5896 25.4561 14.9272C25.8043 15.2648 26 15.7226 26 16.2C26 16.6774 25.8043 17.1352 25.4561 17.4728C25.1078 17.8104 24.6354 18 24.1429 18H14.8571C14.3646 18 13.8922 17.8104 13.5439 17.4728C13.1957 17.1352 13 16.6774 13 16.2C13 15.7226 13.1957 15.2648 13.5439 14.9272C13.8922 14.5896 14.3646 14.4 14.8571 14.4ZM1.85714 7.2H24.1429C24.6354 7.2 25.1078 7.38964 25.4561 7.72721C25.8043 8.06477 26 8.52261 26 9C26 9.47739 25.8043 9.93523 25.4561 10.2728C25.1078 10.6104 24.6354 10.8 24.1429 10.8H1.85714C1.3646 10.8 0.892226 10.6104 0.543945 10.2728C0.195663 9.93523 0 9.47739 0 9C0 8.52261 0.195663 8.06477 0.543945 7.72721C0.892226 7.38964 1.3646 7.2 1.85714 7.2Z" fill="#86413F"/>
</svg>
