<svg width="16" height="21" viewBox="0 0 16 21" fill="none" xmlns="http://www.w3.org/2000/svg">
<path d="M0 18.0131V16.8708H1.84686V7.8186C1.84686 6.32608 2.31924 5.01365 3.264 3.88132C4.20876 2.74898 5.40648 2.04384 6.85714 1.7659V1.14224C6.85714 0.824694 6.968 0.555127 7.18971 0.333533C7.41143 0.111178 7.68076 0 7.99771 0C8.31467 0 8.58476 0.111178 8.808 0.333533C9.03124 0.555888 9.14286 0.825456 9.14286 1.14224V1.7659C10.5935 2.04384 11.7912 2.74936 12.736 3.88246C13.6808 5.01556 14.1531 6.32798 14.1531 7.81974V16.8697H16V18.0119L0 18.0131ZM7.99657 21C7.48762 21 7.05333 20.8191 6.69372 20.4574C6.3341 20.0957 6.15429 19.6617 6.15429 19.1553H9.84571C9.84571 19.6655 9.66476 20.1003 9.30286 20.4597C8.94019 20.8191 8.50476 21 7.99657 21ZM2.98971 16.8708H13.0114V7.81974C13.0114 6.43155 12.5234 5.24971 11.5474 4.27425C10.5714 3.29878 9.38895 2.81142 8 2.81218C6.61105 2.81295 5.42857 3.3003 4.45257 4.27425C3.47657 5.24819 2.98895 6.43002 2.98971 7.81974V16.8708Z" fill="#86413F"/>
</svg>
