<svg width="24" height="24" viewBox="0 0 24 24" fill="none" xmlns="http://www.w3.org/2000/svg">
<path d="M8 5.75C8 4.68913 8.42143 3.67172 9.17157 2.92157C9.92172 2.17143 10.9391 1.75 12 1.75C13.0609 1.75 14.0783 2.17143 14.8284 2.92157C15.5786 3.67172 16 4.68913 16 5.75C16 6.81087 15.5786 7.82828 14.8284 8.57843C14.0783 9.32857 13.0609 9.75 12 9.75C10.9391 9.75 9.92172 9.32857 9.17157 8.57843C8.42143 7.82828 8 6.81087 8 5.75ZM3.28769 15.7877C4.27226 14.8031 5.60761 14.25 7 14.25H17C18.3924 14.25 19.7277 14.8031 20.7123 15.7877C21.6969 16.7723 22.25 18.1076 22.25 19.5C22.25 20.2293 21.9603 20.9288 21.4445 21.4445C20.9288 21.9603 20.2293 22.25 19.5 22.25H4.5C3.77065 22.25 3.07118 21.9603 2.55546 21.4445C2.03973 20.9288 1.75 20.2293 1.75 19.5C1.75 18.1076 2.30312 16.7723 3.28769 15.7877Z" stroke="black" stroke-opacity="0.4" stroke-width="2"/>
</svg>
