<svg width="42" height="42" viewBox="0 0 42 42" fill="none" xmlns="http://www.w3.org/2000/svg">
<g clip-path="url(#clip0_12_883)">
<path d="M32.4029 10.0084L35.0388 7.37223C35.5192 6.8919 35.5192 6.11261 35.0388 5.63228C34.5582 5.15163 33.7792 5.15163 33.2986 5.63228L30.6627 8.26817C30.182 8.74882 30.182 9.52779 30.6627 10.0084C31.143 10.4888 31.9223 10.4891 32.4029 10.0084Z" fill="#86413F"/>
<path d="M38.1227 17.1336H35.4868C34.8072 17.1336 34.2563 17.6844 34.2563 18.3641C34.2563 19.0434 34.8072 19.5945 35.4868 19.5945H38.1227C38.8023 19.5945 39.3532 19.0434 39.3532 18.3641C39.3532 17.6844 38.8023 17.1336 38.1227 17.1336Z" fill="#86413F"/>
<path d="M22.2196 1.23047C22.2196 0.550826 21.6688 0 20.9891 0C20.3095 0 19.7587 0.550826 19.7587 1.23047V3.86635C19.7587 4.54599 20.3095 5.09682 20.9891 5.09682C21.6688 5.09682 22.2196 4.54599 22.2196 3.86635V1.23047Z" fill="#86413F"/>
<path d="M9.57524 10.0084C10.0556 10.4888 10.8349 10.4891 11.3155 10.0084C11.7958 9.52779 11.7958 8.74882 11.3155 8.26817L8.67962 5.63228C8.19897 5.15163 7.42 5.15163 6.93935 5.63228C6.45902 6.11293 6.45902 6.8919 6.93935 7.37223L9.57524 10.0084Z" fill="#86413F"/>
<path d="M7.72188 18.3641C7.72188 17.6844 7.17105 17.1336 6.49141 17.1336H3.85553C3.17589 17.1336 2.62506 17.6844 2.62506 18.3641C2.62506 19.0434 3.17589 19.5945 3.85553 19.5945H6.49141C7.17105 19.5945 7.72188 19.0437 7.72188 18.3641Z" fill="#86413F"/>
<path d="M14.4869 24.8874C14.4875 23.8467 14.7342 22.7969 15.2037 21.8443C15.2037 21.8443 18.4439 15.3715 19.0636 14.1346C19.5183 13.2201 19.7586 12.1995 19.7586 11.1825C19.7586 10.1795 19.3796 9.23649 18.69 8.51872L17.6604 7.48917C17.2647 7.09311 16.5972 7.20142 16.3467 7.70225L9.34486 21.7058C9.2593 21.8766 9.21508 22.0651 9.21508 22.256V31.6313L6.21871 34.6273C5.73838 35.108 5.73838 35.887 6.21871 36.3676L11.4905 41.6394C11.9711 42.12 12.7504 42.12 13.2308 41.6394L18.1895 36.6804C19.2014 35.671 19.7586 34.3255 19.7586 32.8919V22.5188C19.7586 22.3252 19.6019 22.1686 19.4087 22.1686C18.0494 22.1686 16.9478 23.2705 16.9478 24.6295V28.9092C16.9478 29.6084 16.3643 30.1714 15.6577 30.1381C14.996 30.107 14.4869 29.5369 14.4869 28.8743V24.8919C14.4869 24.8906 14.4869 24.889 14.4869 24.8874Z" fill="#86413F"/>
<path d="M32.7634 31.6313V22.256C32.7634 22.0651 32.7189 21.8766 32.6333 21.7058L25.6315 7.70225C25.3809 7.20142 24.7138 7.09311 24.3177 7.48917L23.2882 8.51872C22.5989 9.23649 22.2195 10.1795 22.2195 11.1825C22.2195 12.1995 22.4599 13.2201 22.9146 14.1346C23.5343 15.3715 26.7748 21.8443 26.7748 21.8443C27.2443 22.7969 27.4907 23.8467 27.4916 24.8874V24.8919V28.8743C27.4916 29.5369 26.9825 30.107 26.3205 30.1384C25.6139 30.1717 25.0307 29.6084 25.0307 28.9092V24.6295C25.0307 23.2705 23.9287 22.1686 22.5698 22.1686C22.3766 22.1686 22.2195 22.3252 22.2195 22.5188V32.8919C22.2195 34.3255 22.7771 35.671 23.789 36.6804L28.7477 41.6394C29.2281 42.12 30.0074 42.12 30.4877 41.6397L35.7595 36.3676C36.2401 35.887 36.2401 35.108 35.7595 34.6277L32.7634 31.6313Z" fill="#86413F"/>
</g>
<defs>
<clipPath id="clip0_12_883">
<rect width="42" height="42" fill="white"/>
</clipPath>
</defs>
</svg>
