<svg width="24" height="24" viewBox="0 0 24 24" fill="none" xmlns="http://www.w3.org/2000/svg">
<path d="M19.1247 9.86167C19.1279 11.8324 18.4997 13.7523 17.3321 15.3399C17.3891 15.3817 17.4437 15.4282 17.496 15.4795L22.9822 20.9663C23.2495 21.2335 23.3998 21.596 23.4 21.9741C23.4001 22.3521 23.2501 22.7147 22.9829 22.9822C22.7157 23.2496 22.3532 23.3999 21.9752 23.4C21.5972 23.4001 21.2346 23.2501 20.9672 22.9829L15.4811 17.4961C15.4295 17.4452 15.3818 17.3904 15.3386 17.3322H15.3414C13.6625 18.5641 11.6176 19.1943 9.53658 19.121C7.45559 19.0478 5.45998 18.2754 3.87184 16.9285C2.2837 15.5816 1.19568 13.7388 0.783375 11.6976C0.371071 9.65631 0.658542 7.53565 1.59939 5.67785C2.54024 3.82005 4.07958 2.33351 5.96896 1.45814C7.85834 0.582767 9.98754 0.369641 12.0129 0.853157C14.0383 1.33667 15.8417 2.48862 17.132 4.12308C18.4223 5.75755 19.1244 7.77917 19.1247 9.86167ZM9.86236 17.6999C10.8916 17.6999 11.9107 17.4972 12.8616 17.1032C13.8125 16.7093 14.6765 16.132 15.4042 15.4041C16.132 14.6763 16.7093 13.8122 17.1032 12.8612C17.497 11.9102 17.6998 10.891 17.6998 9.86167C17.6998 8.83234 17.497 7.81308 17.1032 6.86211C16.7093 5.91113 16.132 5.04705 15.4042 4.3192C14.6765 3.59135 13.8125 3.01399 12.8616 2.62009C11.9107 2.22618 10.8916 2.02344 9.86236 2.02344C7.78376 2.02344 5.79029 2.84925 4.32049 4.3192C2.85069 5.78915 2.02497 7.78284 2.02497 9.86167C2.02497 11.9405 2.85069 13.9342 4.32049 15.4041C5.79029 16.8741 7.78376 17.6999 9.86236 17.6999Z" fill="black" fill-opacity="0.4"/>
</svg>
