<svg width="42" height="42" viewBox="0 0 42 42" fill="none" xmlns="http://www.w3.org/2000/svg">
<path d="M20.3438 28.7109C20.5421 28.8243 20.7666 28.8839 20.9951 28.8839C21.2235 28.8839 21.4481 28.8243 21.6464 28.7109C22.0484 28.4796 31.4902 22.9687 31.4902 13.1332C31.4077 10.4053 30.2663 7.81675 28.308 5.91598C26.3496 4.01521 23.7282 2.9516 20.9991 2.95053C18.2699 2.94947 15.6476 4.01102 13.6878 5.91027C11.728 7.80951 10.5846 10.3972 10.5 13.125C10.5 22.9687 19.9467 28.4714 20.3438 28.7109ZM21 9.1875C21.7788 9.1875 22.54 9.41843 23.1876 9.85109C23.8351 10.2837 24.3398 10.8987 24.6378 11.6182C24.9358 12.3377 25.0138 13.1294 24.8618 13.8932C24.7099 14.657 24.3349 15.3586 23.7842 15.9092C23.2336 16.4599 22.532 16.8349 21.7682 16.9868C21.0044 17.1388 20.2127 17.0608 19.4932 16.7628C18.7737 16.4648 18.1587 15.9601 17.7261 15.3126C17.2934 14.665 17.0625 13.9038 17.0625 13.125C17.0625 12.0807 17.4773 11.0792 18.2158 10.3408C18.9542 9.60234 19.9557 9.1875 21 9.1875ZM39.375 30.1875C39.375 35.303 29.907 38.0625 21 38.0625C12.093 38.0625 2.625 35.303 2.625 30.1875C2.625 27.7938 4.79391 25.6741 8.73305 24.2205C9.05608 24.1138 9.40794 24.1367 9.71443 24.2844C10.0209 24.432 10.2581 24.6929 10.376 25.0121C10.4938 25.3312 10.4832 25.6836 10.3463 25.9951C10.2093 26.3065 9.95681 26.5526 9.64195 26.6815C6.93328 27.6839 5.25 29.0259 5.25 30.1875C5.25 32.3794 11.2416 35.4375 21 35.4375C30.7584 35.4375 36.75 32.3794 36.75 30.1875C36.75 29.0259 35.0667 27.6839 32.358 26.6831C32.0432 26.5542 31.7907 26.3082 31.6537 25.9967C31.5168 25.6853 31.5062 25.3328 31.624 25.0137C31.7419 24.6946 31.9791 24.4337 32.2856 24.286C32.5921 24.1383 32.9439 24.1155 33.267 24.2222C37.2061 25.6741 39.375 27.7938 39.375 30.1875Z" fill="#86413F"/>
</svg>
